<svg viewBox="0 0 16 12" xmlns="http://www.w3.org/2000/svg">
<path d="M14.75 2.25011H5C4.55 2.25011 4.25 1.95011 4.25 1.50011C4.25 1.05011 4.55 0.750109 5 0.750109H14.75C15.2 0.750109 15.5 1.05011 15.5 1.50011C15.5 1.95011 15.2 2.25011 14.75 2.25011Z" />
<path d="M14.75 6.75011H5C4.55 6.75011 4.25 6.45011 4.25 6.00011C4.25 5.55011 4.55 5.25011 5 5.25011H14.75C15.2 5.25011 15.5 5.55011 15.5 6.00011C15.5 6.45011 15.2 6.75011 14.75 6.75011Z" />
<path d="M14.75 11.2501H5C4.55 11.2501 4.25 10.9501 4.25 10.5001C4.25 10.0501 4.55 9.75011 5 9.75011H14.75C15.2 9.75011 15.5 10.0501 15.5 10.5001C15.5 10.9501 15.2 11.2501 14.75 11.2501Z" />
<path d="M1.25 2.25011C1.175 2.25011 1.175 2.25011 1.1 2.25011C1.025 2.25011 1.025 2.25011 0.95 2.17511C0.875 2.17511 0.875 2.10011 0.8 2.10011C0.725 2.10011 0.725 2.02511 0.725 2.02511C0.65 1.95011 0.575 1.87511 0.575 1.80011C0.5 1.72511 0.5 1.57511 0.5 1.50011C0.5 1.42511 0.5 1.27511 0.575 1.20011C0.65 1.12511 0.65 1.05011 0.725 0.975109C0.95 0.750109 1.25 0.675109 1.55 0.825109C1.625 0.900109 1.7 0.900109 1.775 0.975109C1.925 1.12511 2 1.27511 2 1.50011C2 1.72511 1.925 1.87511 1.775 2.02511C1.625 2.17511 1.475 2.25011 1.25 2.25011Z" />
<path d="M1.25 6.75011C1.025 6.75011 0.875 6.67511 0.725 6.52511C0.575 6.37511 0.5 6.22511 0.5 6.00011C0.5 5.92511 0.5 5.92511 0.5 5.85011C0.5 5.77511 0.5 5.77511 0.575 5.70011C0.575 5.62511 0.65 5.62511 0.65 5.55011C0.65 5.47511 0.725 5.47511 0.725 5.47511C0.8 5.40011 0.875 5.32511 0.95 5.32511C1.25 5.17511 1.55 5.25011 1.775 5.47511L1.85 5.55011C1.85 5.62511 1.925 5.62511 1.925 5.70011C1.925 5.77511 1.925 5.77511 2 5.85011C2 5.92511 2 5.92511 2 6.00011C2 6.22511 1.925 6.37511 1.775 6.52511C1.625 6.67511 1.475 6.75011 1.25 6.75011Z" />
<path d="M1.25 11.2501C1.025 11.2501 0.875 11.1751 0.725 11.0251C0.575 10.8751 0.5 10.7251 0.5 10.5001C0.5 10.4251 0.5 10.2751 0.575 10.2001C0.65 10.1251 0.65 10.0501 0.725 9.97511C1.025 9.67511 1.475 9.67511 1.775 9.97511C1.925 10.1251 2 10.2751 2 10.5001C2 10.7251 1.925 10.8751 1.775 11.0251C1.625 11.1751 1.475 11.2501 1.25 11.2501Z" />
</svg>
